{"title":"Dead End 2012 DVDRip XViD juggs","uid":8181305,"size":749305407,"categoryP":"video","categoryS":"movies","magnet":"?xt=urn:btih:881ec74c1781ccf7b0a510821b1b33c073f4a032&amp;dn=Dead+End+2012+DVDRip+XViD+juggs&amp;tr=udp%3A%2F%2Ftracker.openbittorrent.com%3A80&amp;tr=udp%3A%2F%2Fopen.demonii.com%3A1337&amp;tr=udp%3A%2F%2Ftracker.coppersurfer.tk%3A6969&amp;tr=udp%3A%2F%2Fexodus.desync.com%3A6969","seeders":3,"leechers":1,"uploader":"juggs99","files":3,"time":1361632424,"description":"Source : DVDR LS\n\n\nFormat : AVI\nFormat/Info : Audio Video Interleave\nFile size : 701 MiB\nDuration : 1h 22mn\nOverall bit rate : 1 189 Kbps\nWriting library : VirtualDub build 32842/release\n\nVideo\nID : 0\nFormat : MPEG-4 Visual\nFormat profile : Advanced Simple@L5\nFormat settings, BVOP : 4\nFormat settings, QPel : No\nFormat settings, GMC : No warppoints\nFormat settings, Matrix : Default (H.263)\nMuxing mode : Packed bitstream\nCodec ID : XVID\nCodec ID/Hint : XviD\nDuration : 1h 22mn\nBit rate : 1 052 Kbps\nWidth : 640 pixels\nHeight : 272 pixels\nDisplay aspect ratio : 2.35:1\nFrame rate : 25.000 fps\nColor space : YUV\nChroma subsampling : 4:2:0\nBit depth : 8 bits\nScan type : Progressive\nCompression mode : Lossy\nBits/(Pixel*Frame) : 0.242\nStream size : 620 MiB (88%)\nWriting library : XviD 64\n\nAudio\nID : 1\nFormat : MPEG Audio\nFormat version : Version 1\nFormat profile : Layer 3\nCodec ID : 55\nCodec ID/Hint : MP3\nDuration : 1h 22mn\nBit rate mode : Constant\nBit rate : 128 Kbps\nChannel(s) : 2 channels\nSampling rate : 44.1 KHz\nCompression mode : Lossy\nStream size : 75.5 MiB (11%)\nAlignment : Split accross interleaves\nInterleave, duration : 40 ms (1.00 video frame)\nInterleave, preload duration : 500 ms\nWriting library : LAME3.99r\nEncoding settings : -m s -V 4 -q 3 -lowpass 17 -b 128\n\n\nPlot\nCarl Foster takes off on a well-deserved weekend break with his family knowing only too well that focus on work has impacted his relationship with his wife, young son, and teenage step-daughter. But after a short but restful break in the journey Carl awakens to find himself tied and bound in an old roadside diner, his family trussed and gagged next to him, and a disparate group of dirty, dishevelled, vagrant-like undesirables keeping them captive. Only time will reveal who they are and what they want, but things are not everything they might seem.\n\n &lt;a href=&quot;\nhttp://www.shotpix.com/images/07616466062910417666.png&quot; rel=&quot;nofollow&quot; target=&quot;_NEW&quot;&gt;\nhttp://www.shotpix.com/images/07616466062910417666.png&lt;/a&gt; &lt;a href=&quot;\nhttp://www.shotpix.com/images/00255241518923187335.png&quot; rel=&quot;nofollow&quot; target=&quot;_NEW&quot;&gt;\nhttp://www.shotpix.com/images/00255241518923187335.png&lt;/a&gt; &lt;a href=&quot;\nhttp://www.shotpix.com/images/33301493554662190551.png&quot; rel=&quot;nofollow&quot; target=&quot;_NEW&quot;&gt;\nhttp://www.shotpix.com/images/33301493554662190551.png&lt;/a&gt;","torrent":{"xt":"urn:btih:881ec74c1781ccf7b0a510821b1b33c073f4a032","amp;dn":"Dead+End+2012+DVDRip+XViD+juggs","amp;tr":["udp%3A%2F%2Ftracker.openbittorrent.com%3A80","udp%3A%2F%2Fopen.demonii.com%3A1337","udp%3A%2F%2Ftracker.coppersurfer.tk%3A6969","udp%3A%2F%2Fexodus.desync.com%3A6969"],"infoHash":"881ec74c1781ccf7b0a510821b1b33c073f4a032","infoHashBuffer":{"type":"Buffer","data":[136,30,199,76,23,129,204,247,176,165,16,130,27,27,51,192,115,244,160,50]},"announce":[],"urlList":[]}}